<svg width="44" height="44" viewBox="0 0 44 44" fill="none" xmlns="http://www.w3.org/2000/svg">
<rect width="44" height="44" rx="22" fill="#1A1A1A"/>
<path d="M7.55031 10.7489C7.64506 10.8023 7.74404 10.8479 7.84626 10.8854C8.0718 10.9654 8.29717 11.0459 8.52239 11.1268C9.15255 11.3523 9.80415 11.5858 10.4512 11.7996C11.293 12.0779 12.1548 12.3415 12.9882 12.5964L13.321 12.6982C13.4789 12.7354 13.6215 12.8198 13.7295 12.94C13.8374 13.0601 13.9055 13.2102 13.9245 13.37C13.9916 13.7369 14.0681 14.1078 14.1424 14.4663C14.2094 14.7906 14.2787 15.1258 14.3406 15.4561C14.4372 15.9719 14.5356 16.4874 14.6359 17.0028C14.9003 18.3733 15.1736 19.7906 15.3868 21.1916C15.5065 21.9747 15.5783 22.7795 15.6492 23.5581C15.7133 24.269 15.7798 25.0042 15.8815 25.7237L15.9086 25.9145C16.0383 26.8282 16.1611 27.6908 16.1488 28.5963C16.1261 30.2892 16.8062 31.0003 18.5744 31.1325C19.9235 31.2334 21.2814 31.2684 22.6351 31.2684C24.2186 31.2684 25.7956 31.221 27.3449 31.1736C28.6019 31.1354 29.9028 31.0957 31.1813 31.0826H31.2129C31.377 31.088 31.5413 31.0723 31.7015 31.0357L31.7812 31.0141C32.0248 30.9615 32.2589 30.8723 32.4755 30.7496C32.6287 30.6571 32.7549 30.5264 32.8413 30.3704C32.9278 30.2144 32.9713 30.0388 32.9678 29.8609C32.9593 29.6903 32.9057 29.5248 32.8126 29.3813C32.7195 29.2376 32.59 29.1206 32.4371 29.042C32.1109 28.8749 31.748 28.7908 31.381 28.7971C30.4113 28.8132 29.4269 28.8421 28.4746 28.8698C27.2319 28.9061 25.9469 28.9434 24.6836 28.9528C23.2659 28.9634 21.8237 28.9326 20.4287 28.9022C19.8821 28.8902 19.3354 28.8791 18.7886 28.8689C18.6812 28.8635 18.5743 28.8507 18.4687 28.8304C18.4224 28.8228 18.373 28.8145 18.319 28.8066L17.8769 26.5465L18.266 26.5092C18.6061 26.4765 18.9187 26.4464 19.2317 26.4197L21.0466 26.2653C23.3398 26.0695 25.7113 25.867 28.0441 25.6761C28.9465 25.6022 29.5476 25.173 29.8818 24.364L29.986 24.1102C30.1846 23.5949 30.415 23.092 30.6756 22.6044C31.3819 21.3507 31.8996 19.9986 32.3996 18.6908L32.5287 18.354C32.8093 17.6233 33.1297 16.6488 33.118 15.5892C33.1082 14.7167 32.7087 14.2957 31.8226 14.2245C31.6982 14.2147 31.5772 14.214 31.4435 14.2147C30.4474 14.2191 29.4512 14.2226 28.4552 14.2251C25.9488 14.2328 23.3571 14.2409 20.8081 14.2715C19.8074 14.2834 18.792 14.3399 17.8098 14.3946C17.3352 14.4211 16.8607 14.4476 16.3859 14.4692C16.2828 14.4737 16.1765 14.4725 16.0641 14.4713L15.9834 14.4705C15.9515 14.3379 15.92 14.2064 15.8891 14.0759C15.8021 13.7108 15.72 13.3658 15.6293 13.0152C15.3927 12.1003 14.8611 11.5333 14.0043 11.2816C12.7153 10.9032 11.4107 10.4963 10.1496 10.1029C9.54029 9.91307 8.93075 9.72384 8.32102 9.53516C8.19408 9.49729 8.06309 9.47426 7.93075 9.46656C7.63902 9.44793 7.23763 9.47418 7.12235 9.92534C7.03412 10.2727 7.17382 10.542 7.55031 10.7489ZM16.2589 15.684C16.3911 15.6778 16.5222 15.6709 16.6513 15.6643C17.0361 15.6444 17.3997 15.6256 17.7673 15.6244C18.5706 15.6222 19.3872 15.626 20.1769 15.6297C20.8473 15.633 21.5177 15.6351 22.1881 15.6359C23.3146 15.6351 24.4411 15.633 25.5677 15.6295C27.0813 15.6256 28.5952 15.6234 30.1092 15.6229C30.4301 15.6229 30.7594 15.6458 31.1083 15.6696C31.2371 15.6786 31.37 15.6876 31.5086 15.6961C31.4565 15.8715 31.4091 16.0424 31.3627 16.2089C31.2554 16.6347 31.1186 17.0526 30.9531 17.4596C30.5102 18.4738 30.028 19.4928 29.562 20.4783C29.3868 20.8485 29.2123 21.2188 29.0382 21.5894C28.8121 22.0725 28.584 22.5548 28.337 23.0776L27.9959 23.7992L17.6193 24.7741C17.4642 22.0537 17.0306 19.157 16.2589 15.684Z" fill="white"/>
<path d="M29.2799 34.4212C29.7373 34.4184 30.175 34.2362 30.4974 33.9145C30.6365 33.7803 30.7472 33.62 30.8233 33.443C30.8994 33.2659 30.9391 33.0757 30.9403 32.8834C30.9339 32.07 30.1477 31.322 29.2905 31.3138H29.2746C28.8528 31.3127 28.4472 31.4753 28.1444 31.7666C27.8418 32.058 27.6662 32.4552 27.6549 32.8733C27.6509 33.0711 27.6868 33.2677 27.7609 33.4514C27.8349 33.6351 27.9455 33.8023 28.0859 33.9428C28.2418 34.0973 28.4272 34.2191 28.6313 34.3014C28.8354 34.3835 29.054 34.4243 29.2743 34.4214L29.2799 34.4212Z" fill="white"/>
<path d="M19.4786 34.5377H19.4906C19.8941 34.5322 20.2802 34.3739 20.5696 34.0951C20.8591 33.8162 21.0298 33.4381 21.0468 33.0385C21.0579 32.1745 20.283 31.3425 19.4525 31.3268C19.0511 31.3326 18.6681 31.4945 18.3861 31.7778C18.0583 32.0845 17.8664 32.5075 17.8523 32.9541C17.8555 33.1573 17.8992 33.3578 17.981 33.5442C18.0627 33.7306 18.1808 33.8991 18.3285 34.0401C18.6307 34.3498 19.044 34.5287 19.4786 34.5377Z" fill="white"/>
</svg>
