<svg width="40" height="40" viewBox="0 0 40 40" fill="none" xmlns="http://www.w3.org/2000/svg">
<rect width="40" height="40" rx="20" fill="#1A1A1A"/>
<path fill-rule="evenodd" clip-rule="evenodd" d="M30 30H25.8906V23.0008C25.8906 21.0818 25.1615 20.0094 23.6426 20.0094C21.9902 20.0094 21.127 21.1254 21.127 23.0008V30H17.1667V16.6667H21.127V18.4627C21.127 18.4627 22.3177 16.2593 25.1471 16.2593C27.9753 16.2593 30 17.9863 30 21.5582V30ZM12.4421 14.9208C11.0931 14.9208 10 13.8191 10 12.4604C10 11.1017 11.0931 10 12.4421 10C13.791 10 14.8835 11.1017 14.8835 12.4604C14.8835 13.8191 13.791 14.9208 12.4421 14.9208ZM10.3971 30H14.5267V16.6667H10.3971V30Z" fill="white"/>
</svg>
